<?xml version="1.0" encoding="utf-8"?>
<!-- Generator: Adobe Illustrator 22.0.1, SVG Export Plug-In . SVG Version: 6.00 Build 0)  -->
<svg version="1.1" id="Layer_1" xmlns="http://www.w3.org/2000/svg" xmlns:xlink="http://www.w3.org/1999/xlink" x="0px" y="0px"
	 viewBox="0 0 10 10" style="enable-background:new 0 0 10 10;" xml:space="preserve">
<style type="text/css">
	.st0{fill:#38B2A5;}
	.st1{fill:#FFFFFF;}
</style>
<path class="st0" d="M3.3,3.9C1.9,3.9,0.7,5,0.7,6.3c0,0.4,0.1,0.9,0.4,1.3c0,0.1,0,0.1,0,0.2L1.1,8.7l1.1-0.1c0,0,0,0,0.1,0
	c0,0,0.1,0,0.1,0c0.3,0.1,0.6,0.2,1,0.2c1.4,0,2.6-1.1,2.6-2.4S4.7,3.9,3.3,3.9z"/>
<path class="st1" d="M5.8,0.5c-2,0-3.7,1.4-3.9,3.3C0.9,4.3,0.3,5.2,0.3,6.3c0,0.5,0.1,1,0.4,1.4L0.6,8.9c0,0.1,0,0.1,0.1,0.2
	c0,0,0.1,0.1,0.2,0.1c0,0,0,0,0,0L2.2,9c0.3,0.1,0.7,0.2,1.1,0.2c1,0,1.8-0.4,2.4-1.1c0.5,0,1-0.1,1.5-0.2L9.1,8c0,0,0,0,0,0
	C9.1,8,9.2,8,9.2,8c0.1,0,0.1-0.1,0.1-0.2L9.2,6.2c0.4-0.6,0.6-1.2,0.6-1.9C9.7,2.2,8,0.5,5.8,0.5z M3.3,8.7c-0.3,0-0.6-0.1-1-0.2
	c0,0-0.1,0-0.1,0c0,0,0,0-0.1,0L1.1,8.7l0.1-0.9c0-0.1,0-0.1,0-0.2C0.9,7.2,0.7,6.7,0.7,6.3c0-1.3,1.1-2.4,2.6-2.4S5.8,5,5.8,6.3
	S4.7,8.7,3.3,8.7z M8.7,6c0,0.1,0,0.1,0,0.2l0.1,1.3L7.2,7.3c0,0-0.1,0-0.2,0C6.7,7.5,6.3,7.5,6,7.6c0.2-0.4,0.3-0.8,0.3-1.3
	c0-1.6-1.4-2.9-3-2.9c-0.3,0-0.6,0.1-0.9,0.1C2.7,2.1,4.1,1,5.8,1c1.9,0,3.5,1.5,3.5,3.3C9.3,4.9,9.1,5.5,8.7,6z"/>
<path class="st1" d="M4.9,6.1H4.4c-0.1,0-0.3,0.1-0.3,0.3c0,0.1,0.1,0.3,0.3,0.3h0.5c0.1,0,0.3-0.1,0.3-0.3C5.1,6.2,5,6.1,4.9,6.1z"
	/>
<path class="st1" d="M3.6,6.1H3c-0.1,0-0.3,0.1-0.3,0.3S2.9,6.6,3,6.6h0.5c0.1,0,0.3-0.1,0.3-0.3S3.7,6.1,3.6,6.1z"/>
<path class="st1" d="M2.2,6.1H1.7c-0.1,0-0.3,0.1-0.3,0.3s0.1,0.3,0.3,0.3h0.5c0.1,0,0.3-0.1,0.3-0.3S2.4,6.1,2.2,6.1z"/>
</svg>
