<?xml version="1.0" encoding="utf-8"?>
<!-- Generator: Adobe Illustrator 22.0.1, SVG Export Plug-In . SVG Version: 6.00 Build 0)  -->
<svg version="1.1" id="Layer_1" xmlns="http://www.w3.org/2000/svg" xmlns:xlink="http://www.w3.org/1999/xlink" x="0px" y="0px"
	 viewBox="0 0 96 96" style="enable-background:new 0 0 96 96;" xml:space="preserve">
<style type="text/css">
	.st0{fill:#FFFFFF;}
	.st1{fill:#0068A5;}
	.st2{fill:#38B2A5;}
</style>
<path class="st0" d="M54.6,9.3c-16.4,0-30.4,11-33.7,25.7c2.9-0.9,6-1.4,9.2-1.4c16.3,0,29.6,12.6,29.6,28c0,4.4-1.1,8.6-3.1,12.3
	c3.7-0.2,7.3-1,10.8-2.3c0.5-0.2,1-0.2,1.5,0l15.8,2l-1.2-13c-0.2-0.6-0.1-1.3,0.3-1.9c3.5-5.2,5.3-11.1,5.3-17.1
	C89.1,23.8,73.6,9.3,54.6,9.3z"/>
<path class="st1" d="M30.1,38.1C16.3,38.1,5,48.7,5,61.6c0,4.4,1.3,8.7,3.8,12.4c0.4,0.6,0.5,1.3,0.3,2l-0.8,8.8l11-1.4
	c0.2-0.1,0.4-0.1,0.6-0.1c0.3,0,0.5,0,0.8,0.1c3,1.1,6.1,1.7,9.3,1.7c13.8,0,25.1-10.5,25.1-23.5S43.9,38.1,30.1,38.1z"/>
<path class="st2" d="M54.6,4.8c-19.9,0-36.3,13.8-38.7,32.3c-9.2,4.8-15.4,14-15.4,24.6c0,5,1.4,9.9,4.1,14.2l-1,11.4
	c-0.1,0.7,0.2,1.4,0.7,1.8c0.4,0.4,1,0.6,1.6,0.6c0.1,0,0.2,0,0.3,0l13.6-1.8c3.3,1.2,6.8,1.8,10.3,1.8c9.6,0,18.2-4.4,23.6-11.1
	c5,0.1,10-0.7,14.7-2.4l18.5,2.4c0.1,0,0.2,0,0.3,0c0.6,0,1.1-0.2,1.6-0.6c0.5-0.5,0.7-1.1,0.7-1.8l-1.4-15.6
	c3.6-5.7,5.5-12.2,5.5-18.9C93.6,21.3,76.1,4.8,54.6,4.8z M30.1,85.1c-3.2,0-6.3-0.6-9.3-1.7c-0.3-0.1-0.5-0.1-0.8-0.1
	c-0.2,0-0.4,0-0.6,0.1l-11,1.4L9.1,76c0.2-0.6,0.1-1.4-0.3-2C6.3,70.3,5,66,5,61.6c0-13,11.3-23.5,25.1-23.5s25.1,10.5,25.1,23.5
	S43.9,85.1,30.1,85.1z M83.8,58.8c-0.4,0.6-0.5,1.3-0.3,1.9l1.2,13l-15.8-2c-0.5-0.2-1-0.1-1.5,0c-3.5,1.3-7.1,2.1-10.8,2.3
	c1.9-3.7,3.1-7.9,3.1-12.3c0-15.5-13.3-28-29.6-28c-3.2,0-6.3,0.5-9.2,1.4C24.1,20.3,38.2,9.3,54.6,9.3c19,0,34.5,14.5,34.5,32.4
	C89.1,47.7,87.3,53.7,83.8,58.8z"/>
<path class="st0" d="M45.9,59.3h-5.1c-1.4,0-2.5,1.1-2.5,2.5c0,1.4,1.1,2.5,2.5,2.5h5.1c1.4,0,2.5-1.1,2.5-2.5
	C48.4,60.4,47.3,59.3,45.9,59.3z"/>
<path class="st0" d="M32.9,59.3h-5.1c-1.4,0-2.5,1.1-2.5,2.5s1.1,2.5,2.5,2.5h5.1c1.4,0,2.5-1.1,2.5-2.5S34.3,59.3,32.9,59.3z"/>
<path class="st0" d="M19.9,59.3h-5.1c-1.4,0-2.5,1.1-2.5,2.5s1.1,2.5,2.5,2.5h5.1c1.4,0,2.5-1.1,2.5-2.5S21.3,59.3,19.9,59.3z"/>
</svg>
