<?xml version="1.0" encoding="utf-8"?>
<!-- Generator: Adobe Illustrator 22.0.1, SVG Export Plug-In . SVG Version: 6.00 Build 0)  -->
<svg version="1.1" id="Layer_1" xmlns="http://www.w3.org/2000/svg" xmlns:xlink="http://www.w3.org/1999/xlink" x="0px" y="0px"
	 viewBox="0 0 100 72.2" style="enable-background:new 0 0 100 72.2;" xml:space="preserve">
<style type="text/css">
	.st0{fill:#FFFFFF;}
	.st1{fill:#0068A5;}
	.st2{fill:#38B2A5;}
</style>
<path class="st0" d="M55.1,5.5c-12.7,0-23.7,8.6-26.2,20c2.3-0.7,4.7-1.1,7.2-1.1c12.7,0,23,9.8,23,21.8c0,3.4-0.9,6.7-2.4,9.6
	c2.8-0.2,5.7-0.7,8.4-1.8c0.4-0.1,0.8-0.1,1.1,0l12.3,1.6l-0.9-10.1c-0.2-0.5-0.1-1,0.2-1.5c2.7-4,4.1-8.6,4.1-13.3
	C81.9,16.8,69.9,5.5,55.1,5.5z"/>
<path class="st1" d="M36.1,27.9c-10.7,0-19.5,8.2-19.5,18.3c0,3.4,1,6.7,3,9.7c0.3,0.5,0.4,1,0.2,1.5l-0.6,6.8l8.6-1.1
	c0.2,0,0.3-0.1,0.5-0.1c0.2,0,0.4,0,0.6,0.1c2.3,0.9,4.8,1.3,7.3,1.3c10.7,0,19.5-8.2,19.5-18.3S46.9,27.9,36.1,27.9z M29.6,48.4H26
	c-1,0-1.8-0.8-1.8-1.8c0-1,0.8-1.8,1.8-1.8h3.6c1,0,1.8,0.8,1.8,1.8C31.3,47.7,30.5,48.4,29.6,48.4z M38.3,48.4h-3.6
	c-1,0-1.8-0.8-1.8-1.8c0-1,0.8-1.8,1.8-1.8h3.6c1,0,1.8,0.8,1.8,1.8C40,47.7,39.3,48.4,38.3,48.4z M47.8,48.7h-3.6
	c-1,0-1.8-0.8-1.8-1.8c0-1,0.8-1.8,1.8-1.8h3.6c1,0,1.8,0.8,1.8,1.8C49.6,47.9,48.8,48.7,47.8,48.7z"/>
<path class="st0" d="M47.8,45.1h-3.6c-1,0-1.8,0.8-1.8,1.8c0,1,0.8,1.8,1.8,1.8h3.6c1,0,1.8-0.8,1.8-1.8
	C49.6,45.9,48.8,45.1,47.8,45.1z"/>
<path class="st0" d="M38.3,44.9h-3.6c-1,0-1.8,0.8-1.8,1.8c0,1,0.8,1.8,1.8,1.8h3.6c1,0,1.8-0.8,1.8-1.8
	C40,45.7,39.3,44.9,38.3,44.9z"/>
<path class="st0" d="M29.6,44.9H26c-1,0-1.8,0.8-1.8,1.8c0,1,0.8,1.8,1.8,1.8h3.6c1,0,1.8-0.8,1.8-1.8
	C31.3,45.7,30.5,44.9,29.6,44.9z"/>
<path class="st2" d="M55.1,2C39.7,2,27,12.7,25.1,27.1c-7.1,3.7-12,10.9-12,19.1c0,3.9,1.1,7.7,3.2,11L15.5,66
	c0,0.5,0.1,1.1,0.5,1.4c0.3,0.3,0.8,0.5,1.2,0.5c0.1,0,0.1,0,0.2,0l10.6-1.4c2.6,0.9,5.3,1.4,8,1.4c7.5,0,14.1-3.4,18.3-8.7
	c3.9,0.1,7.8-0.5,11.5-1.8l14.4,1.9c0.1,0,0.2,0,0.2,0c0.5,0,0.9-0.2,1.2-0.5c0.4-0.4,0.6-0.9,0.5-1.4l-1.1-12.1
	c2.8-4.4,4.3-9.5,4.3-14.7C85.5,14.9,71.9,2,55.1,2z M36.1,64.4c-2.5,0-4.9-0.4-7.3-1.3C28.6,63,28.4,63,28.2,63
	c-0.2,0-0.3,0-0.5,0.1l-8.6,1.1l0.6-6.8c0.2-0.5,0.1-1.1-0.2-1.5c-1.9-2.9-3-6.2-3-9.7c0-10.1,8.7-18.3,19.5-18.3
	s19.5,8.2,19.5,18.3S46.9,64.4,36.1,64.4z M77.8,44c-0.3,0.5-0.4,1-0.2,1.5l0.9,10.1L66.3,54c-0.4-0.1-0.8-0.1-1.1,0
	c-2.7,1-5.5,1.6-8.4,1.8c1.5-2.9,2.4-6.1,2.4-9.6c0-12-10.3-21.8-23-21.8c-2.5,0-4.9,0.4-7.2,1.1c2.6-11.4,13.5-20,26.2-20
	c14.8,0,26.8,11.3,26.8,25.1C81.9,35.4,80.5,40,77.8,44z"/>
</svg>
