<?xml version="1.0" encoding="utf-8"?>
<!-- Generator: Adobe Illustrator 22.0.1, SVG Export Plug-In . SVG Version: 6.00 Build 0)  -->
<svg version="1.1" id="Layer_1" xmlns="http://www.w3.org/2000/svg" xmlns:xlink="http://www.w3.org/1999/xlink" x="0px" y="0px"
	 viewBox="0 0 512 512" style="enable-background:new 0 0 512 512;" xml:space="preserve">
<style type="text/css">
	.st0{fill:#FFFFFF;}
	.st1{fill:#0068A5;}
	.st2{fill:#38B2A5;}
</style>
<path class="st0" d="M292.7,48.3c-84.4,0-157.1,57-174.1,132.8c15-4.7,31-7.3,47.7-7.3c84.2,0,152.7,64.8,152.7,144.5
	c0,22.9-5.8,44.4-15.8,63.6c18.9-1.1,37.8-5,55.7-11.7c2.5-1,5.2-1,7.6-0.2l81.6,10.5l-6-66.9c-1.1-3.2-0.7-6.8,1.3-9.9
	c17.8-26.7,27.2-57.2,27.2-88.4C470.7,123.2,390.8,48.3,292.7,48.3z"/>
<path class="st1" d="M166.3,197.1c-71.3,0-129.4,54.4-129.4,121.2c0,22.6,6.8,44.8,19.7,64.1c2.1,3.1,2.5,6.8,1.4,10.1l-4,45.2
	l56.9-7.3c1-0.3,2.1-0.4,3.1-0.4c1.4,0,2.7,0.2,4.1,0.7c15.5,5.8,31.7,8.8,48.2,8.8c71.3,0,129.4-54.4,129.4-121.2
	S237.6,197.1,166.3,197.1z M122.8,333.3H99.1c-6.4,0-11.7-5.2-11.7-11.7c0-6.4,5.2-11.7,11.7-11.7h23.7c6.4,0,11.7,5.2,11.7,11.7
	C134.5,328.1,129.2,333.3,122.8,333.3z M180.8,333.3h-23.7c-6.4,0-11.7-5.2-11.7-11.7c0-6.4,5.2-11.7,11.7-11.7h23.7
	c6.4,0,11.7,5.2,11.7,11.7C192.5,328.1,187.2,333.3,180.8,333.3z M244.1,334.7h-23.7c-6.4,0-11.7-5.2-11.7-11.7
	c0-6.4,5.2-11.7,11.7-11.7h23.7c6.4,0,11.7,5.2,11.7,11.7C255.7,329.5,250.5,334.7,244.1,334.7z"/>
<path class="st0" d="M244.1,311.4h-23.7c-6.4,0-11.7,5.2-11.7,11.7c0,6.4,5.2,11.7,11.7,11.7h23.7c6.4,0,11.7-5.2,11.7-11.7
	C255.7,316.6,250.5,311.4,244.1,311.4z"/>
<path class="st0" d="M180.8,310h-23.7c-6.4,0-11.7,5.2-11.7,11.7c0,6.4,5.2,11.7,11.7,11.7h23.7c6.4,0,11.7-5.2,11.7-11.7
	C192.5,315.2,187.2,310,180.8,310z"/>
<path class="st0" d="M122.8,310H99.1c-6.4,0-11.7,5.2-11.7,11.7c0,6.4,5.2,11.7,11.7,11.7h23.7c6.4,0,11.7-5.2,11.7-11.7
	C134.5,315.2,129.2,310,122.8,310z"/>
<path class="st2" d="M292.7,25c-102.6,0-187,71.2-199.6,166.5c-47.4,24.6-79.5,72.2-79.5,126.8c0,25.7,7.3,50.9,21.1,73.1l-5.3,58.7
	c-0.3,3.5,1,7,3.5,9.4c2.2,2.1,5.1,3.3,8.1,3.3c0.5,0,1,0,1.5-0.1l70.4-9.1c17.2,6.1,35.1,9.2,53.3,9.2c49.7,0,93.7-22.6,121.6-57.5
	c25.7,0.6,51.6-3.4,76.1-12.2l95.6,12.3c0.5,0.1,1,0.1,1.5,0.1c3,0,5.9-1.2,8.1-3.3c2.6-2.4,3.9-5.9,3.5-9.4l-7.2-80.3
	c18.7-29.6,28.5-63.1,28.5-97.3C494,110.4,403.7,25,292.7,25z M166.3,439.5c-16.5,0-32.7-3-48.2-8.8c-1.3-0.5-2.7-0.7-4.1-0.7
	c-1.1,0-2.1,0.1-3.1,0.4L54,437.8l4-45.2c1.1-3.3,0.7-7.1-1.4-10.1c-12.9-19.3-19.7-41.5-19.7-64.1c0-66.8,58-121.2,129.4-121.2
	s129.4,54.4,129.4,121.2S237.6,439.5,166.3,439.5z M443.5,303.8c-2,3-2.4,6.6-1.3,9.9l6,66.9L366.5,370c-2.4-0.8-5.1-0.8-7.6,0.2
	c-17.9,6.7-36.8,10.6-55.7,11.7c10-19.2,15.8-40.8,15.8-63.6c0-79.7-68.5-144.5-152.7-144.5c-16.7,0-32.7,2.6-47.7,7.3
	c17-75.8,89.7-132.8,174.1-132.8c98.1,0,178,74.9,178,167C470.7,246.5,461.3,277.1,443.5,303.8z"/>
</svg>
